Coordinates
version=1
nRows=9
nColumns=24
inDegrees=yes

Units are S.I. units (second, meters, Newtons, ...)
Angles are in degrees.

endheader
time	pelvis_tilt	pelvis_list	pelvis_rotation	pelvis_tx	pelvis_ty	pelvis_tz	hip_flexion_r	hip_adduction_r	hip_rotation_r	knee_angle_r	ankle_angle_r	subtalar_angle_r	mtp_angle_r	hip_flexion_l	hip_adduction_l	hip_rotation_l	knee_angle_l	ankle_angle_l	subtalar_angle_l	mtp_angle_l	lumbar_extension	lumbar_bending	lumbar_rotation
      0.66683333	    -10.31239750	     -2.57208706	     -4.93382617	     -0.42996092	      0.98616961	      0.35707137	     19.60870008	      9.13619529	      0.83331319	    -13.85584493	     -2.67200819	     11.06015676	    -42.78890919	     25.51373873	     -5.55299442	     -4.33461051	    -66.32014673	    -16.57941895	     -8.41968420	     -1.75316082	     23.67425688	      3.90772448	      3.31919218
      0.67100000	    -10.22802967	     -2.47042918	     -4.90895196	     -0.42475602	      0.98701554	      0.35740584	     19.08989930	      9.01525072	      0.89465939	    -13.69621411	     -2.52150757	     11.10902121	    -42.78308982	     26.19254198	     -5.40790377	     -4.17675623	    -66.63934187	    -16.05548744	     -8.77682341	     -1.71860882	     23.57590512	      3.76310215	      3.42159537
      0.67516667	    -10.15288283	     -2.36717944	     -4.88585530	     -0.41955219	      0.98782067	      0.35774921	     18.58015229	      8.89421637	      0.95573034	    -13.53152121	     -2.37543766	     11.15150560	    -42.77828566	     26.86371112	     -5.26084257	     -4.03361792	    -66.87148505	    -15.55723669	     -9.14538408	     -1.69469634	     23.48513675	      3.62236611	      3.51995254
      0.67933333	    -10.09257948	     -2.28388549	     -4.85972679	     -0.41439427	      0.98854726	      0.35818672	     18.07906199	      8.80823367	      1.08789212	    -13.34115451	     -2.28229223	     11.18350098	    -42.77610662	     27.54271484	     -5.15069129	     -3.87350682	    -67.00097034	    -15.27702401	     -9.36744490	     -1.68715466	     23.40841274	      3.42728700	      3.60293338
      0.68350000	    -10.02750525	     -2.17600786	     -4.84676861	     -0.40917325	      0.98927687	      0.35842615	     17.58939036	      8.66908420	      1.07704492	    -13.20569873	     -2.09859618	     11.22866962	    -42.77151503	     28.18510895	     -4.98497021	     -3.78398531	    -67.10081687	    -14.62665447	     -9.87645156	     -1.67808264	     23.33371895	      3.35549142	      3.69926127
      0.68766667	     -9.97205680	     -2.08016594	     -4.83710705	     -0.40398305	      0.98994925	      0.35873924	     17.09915990	      8.55373568	      1.13867357	    -13.03213085	     -1.95703345	     11.29334999	    -42.76873636	     28.82267400	     -4.84831174	     -3.69102730	    -67.08025612	    -14.22211771	    -10.25769922	     -1.68120440	     23.26701724	      3.24003224	      3.80024331
      0.69183333	     -9.91606488	     -1.99462873	     -4.82628136	     -0.39880074	      0.99057981	      0.35905638	     16.60787008	      8.44924757	      1.19427811	    -12.85954714	     -1.81712015	     11.34905950	    -42.76675088	     29.43856181	     -4.72228146	     -3.60566835	    -66.97437218	    -13.84084729	    -10.63173784	     -1.69323560	     23.19893620	      3.12618055	      3.90073085
      0.69600000	     -9.88038706	     -1.93176711	     -4.80497896	     -0.39363069	      0.99112507	      0.35943686	     16.12500612	      8.38025075	      1.30319320	    -12.65433386	     -1.72110279	     11.37759191	    -42.76567254	     30.06309152	     -4.63139443	     -3.49737497	    -66.77725347	    -13.59649096	    -10.84515467	     -1.70134254	     23.15874785	      2.98286101	      3.97434645
      0.70016667	     -9.84516132	     -1.85885782	     -4.78639536	     -0.38842221	      0.99164070	      0.35972520	     15.64623113	      8.28721949	      1.36066091	    -12.46841743	     -1.58322376	     11.40672299	    -42.76407868	     30.65961519	     -4.51768993	     -3.42461823	    -66.51501513	    -13.21978778	    -11.17493480	     -1.71551314	     23.13344585	      2.87163302	      4.05646301
